{"accessors" : [{"bufferView" : 0, "byteOffset" : 0, "componentType" : 5123, "count" : 184176, "type" : "SCALAR", "max" : [32781], "min" : [0]}, {"bufferView" : 1, "byteOffset" : 0, "componentType" : 5126, "count" : 32782, "type" : "VEC3", "max" : [73.9806976318359, 66.820198059082, 516.361328125], "min" : [-115.646697998047, -65.3264999389648, -0.502300024032593]}, {"bufferView" : 1, "byteOffset" : 12, "componentType" : 5126, "count" : 32782, "type" : "VEC2", "max" : [0.994400024414063, -0.00439999997615814], "min" : [0.00219999998807907, -0.952400028705597]}, {"bufferView" : 1, "byteOffset" : 20, "componentType" : 5126, "count" : 32782, "type" : "VEC3", "max" : [0.999991178512573, 0.999998152256012, 0.999979257583618], "min" : [-0.999998688697815, -0.999934494495392, -1.00000441074371]}], "asset" : {"generator" : "Aspose.3D 20.2.1", "version" : "2.0"}, "buffers" : [{"uri" : "buffer.bin", "byteLength" : 1417384}], "bufferViews" : [{"buffer" : 0, "byteOffset" : 0, "byteLength" : 368352, "target" : 34963}, {"buffer" : 0, "byteOffset" : 368356, "byteLength" : 1049024, "byteStride" : 32, "target" : 34962}], "meshes" : [{"primitives" : [{"attributes" : {"POSITION" : 1, "TEXCOORD_0" : 2, "NORMAL" : 3}, "indices" : 0, "mode" : 4}]}], "nodes" : [{"mesh" : 0, "name" : "12330_Statue"}], "scene" : 0, "scenes" : [{"nodes" : [0]}]}