{
  "accessors": [
    {
      "bufferView": 2,
      "componentType": 5126,
      "count": 65532,
      "max": [
        4.0106010437011719,
        -3.2595798969268799,
        5.3282089233398438
      ],
      "min": [
        -4.7129788398742676,
        -22.636501312255859,
        -4.408790111541748
      ],
      "type": "VEC3"
    },
    {
      "bufferView": 2,
      "byteOffset": 786384,
      "componentType": 5126,
      "count": 65532,
      "max": [
        0.99999922513961792,
        0.99983048439025879,
        0.99978345632553101
      ],
      "min": [
        -0.9999997615814209,
        -0.99997878074645996,
        -0.99998897314071655
      ],
      "type": "VEC3"
    },
    {
      "bufferView": 1,
      "componentType": 5126,
      "count": 65532,
      "max": [
        0.99903500080108643,
        0.99980902671813965
      ],
      "min": [
        0.00015300000086426735,
        0.00021800000104121864
      ],
      "type": "VEC2"
    },
    {
      "bufferView": 0,
      "componentType": 5125,
      "count": 296745,
      "max": [
        65531
      ],
      "min": [
        0
      ],
      "type": "SCALAR"
    },
    {
      "bufferView": 2,
      "byteOffset": 1572768,
      "componentType": 5126,
      "count": 65532,
      "max": [
        3.9572811126708984,
        -3.2289769649505615,
        5.140812873840332
      ],
      "min": [
        -4.7119350433349609,
        -22.67503547668457,
        -4.3741269111633301
      ],
      "type": "VEC3"
    },
    {
      "bufferView": 2,
      "byteOffset": 2359152,
      "componentType": 5126,
      "count": 65532,
      "max": [
        0.99999922513961792,
        0.99988812208175659,
        0.99998390674591064
      ],
      "min": [
        -0.9999997615814209,
        -0.99996459484100342,
        -0.99999749660491943
      ],
      "type": "VEC3"
    },
    {
      "bufferView": 1,
      "byteOffset": 524256,
      "componentType": 5126,
      "count": 65532,
      "max": [
        0.99969202280044556,
        0.99971699714660645
      ],
      "min": [
        0.00014600000577047467,
        0.00014699999883305281
      ],
      "type": "VEC2"
    },
    {
      "bufferView": 0,
      "byteOffset": 1186980,
      "componentType": 5125,
      "count": 287505,
      "max": [
        65531
      ],
      "min": [
        0
      ],
      "type": "SCALAR"
    },
    {
      "bufferView": 2,
      "byteOffset": 3145536,
      "componentType": 5126,
      "count": 65532,
      "max": [
        3.9990239143371582,
        -3.2254068851470947,
        5.3166770935058594
      ],
      "min": [
        -4.7067022323608398,
        -22.656156539916992,
        -4.408790111541748
      ],
      "type": "VEC3"
    },
    {
      "bufferView": 2,
      "byteOffset": 3931920,
      "componentType": 5126,
      "count": 65532,
      "max": [
        0.99999511241912842,
        0.9998018741607666,
        0.99988400936126709
      ],
      "min": [
        -1,
        -0.9999735951423645,
        -0.99999761581420898
      ],
      "type": "VEC3"
    },
    {
      "bufferView": 1,
      "byteOffset": 1048512,
      "componentType": 5126,
      "count": 65532,
      "max": [
        0.99983799457550049,
        0.99985599517822266
      ],
      "min": [
        0.00017499999376013875,
        0.00015999999595806003
      ],
      "type": "VEC2"
    },
    {
      "bufferView": 0,
      "byteOffset": 2337000,
      "componentType": 5125,
      "count": 259347,
      "max": [
        65531
      ],
      "min": [
        0
      ],
      "type": "SCALAR"
    },
    {
      "bufferView": 2,
      "byteOffset": 4718304,
      "componentType": 5126,
      "count": 55947,
      "max": [
        4.0097241401672363,
        -3.323451042175293,
        5.2179431915283203
      ],
      "min": [
        -4.7129130363464355,
        -22.634273529052734,
        -4.3868570327758789
      ],
      "type": "VEC3"
    },
    {
      "bufferView": 2,
      "byteOffset": 5389668,
      "componentType": 5126,
      "count": 55947,
      "max": [
        0.9999733567237854,
        0.99988812208175659,
        0.99998390674591064
      ],
      "min": [
        -0.99999010562896729,
        -0.99999135732650757,
        -0.99999761581420898
      ],
      "type": "VEC3"
    },
    {
      "bufferView": 1,
      "byteOffset": 1572768,
      "componentType": 5126,
      "count": 55947,
      "max": [
        0.99983698129653931,
        0.99984902143478394
      ],
      "min": [
        0.0002789999998640269,
        0.00017899999511428177
      ],
      "type": "VEC2"
    },
    {
      "bufferView": 0,
      "byteOffset": 3374388,
      "componentType": 5125,
      "count": 126039,
      "max": [
        55946
      ],
      "min": [
        0
      ],
      "type": "SCALAR"
    }
  ],
  "asset": {
    "extras": {
      "author": "Geoffrey Marchal (https://sketchfab.com/geoffreymarchal)",
      "license": "CC-BY-NC-4.0 (http://creativecommons.org/licenses/by-nc/4.0/)",
      "source": "https://sketchfab.com/3d-models/hercule-f0b0158e3fc04f99927d8ac934589de1",
      "title": "Hercule"
    },
    "generator": "Sketchfab-7.47.0",
    "version": "2.0"
  },
  "bufferViews": [
    {
      "buffer": 0,
      "byteLength": 3878544,
      "byteOffset": 0,
      "name": "floatBufferViews",
      "target": 34963
    },
    {
      "buffer": 0,
      "byteLength": 2020344,
      "byteOffset": 3878544,
      "byteStride": 8,
      "name": "floatBufferViews",
      "target": 34962
    },
    {
      "buffer": 0,
      "byteLength": 6061032,
      "byteOffset": 5898888,
      "byteStride": 12,
      "name": "floatBufferViews",
      "target": 34962
    }
  ],
  "buffers": [
    {
      "byteLength": 11959920,
      "uri": "scene.bin"
    }
  ],
  "images": [
    {
      "uri": "textures/Hercule_-_CleanUp_-_LowPoly_baseColor.jpeg"
    }
  ],
  "materials": [
    {
      "doubleSided": true,
      "name": "Hercule_-_CleanUp_-_LowPoly",
      "pbrMetallicRoughness": {
        "baseColorFactor": [
          1,
          1,
          1,
          1
        ],
        "baseColorTexture": {
          "index": 0,
          "texCoord": 0
        },
        "metallicFactor": 0,
        "roughnessFactor": 1
      }
    }
  ],
  "meshes": [
    {
      "primitives": [
        {
          "attributes": {
            "NORMAL": 1,
            "POSITION": 0,
            "TEXCOORD_0": 2
          },
          "indices": 3,
          "material": 0,
          "mode": 4
        }
      ]
    },
    {
      "primitives": [
        {
          "attributes": {
            "NORMAL": 5,
            "POSITION": 4,
            "TEXCOORD_0": 6
          },
          "indices": 7,
          "material": 0,
          "mode": 4
        }
      ]
    },
    {
      "primitives": [
        {
          "attributes": {
            "NORMAL": 9,
            "POSITION": 8,
            "TEXCOORD_0": 10
          },
          "indices": 11,
          "material": 0,
          "mode": 4
        }
      ]
    },
    {
      "primitives": [
        {
          "attributes": {
            "NORMAL": 13,
            "POSITION": 12,
            "TEXCOORD_0": 14
          },
          "indices": 15,
          "material": 0,
          "mode": 4
        }
      ]
    }
  ],
  "nodes": [
    {
      "children": [
        1
      ],
      "name": "RootNode (gltf orientation matrix)",
      "rotation": [
        -0.70710678118654746,
        -0,
        -0,
        0.70710678118654757
      ]
    },
    {
      "children": [
        2
      ],
      "matrix": [
        0.99858397245407104,
        -0.053186696022748947,
        -0.0010965117253363132,
        0,
        0.0095001328736543655,
        0.19857046008110046,
        -0.98004055023193359,
        0,
        0.05234285444021225,
        0.97864240407943726,
        0.19879457354545593,
        0,
        0.098468735814094543,
        -10.847216606140137,
        -12.323760032653809,
        1
      ],
      "name": "RootNode (model correction matrix)"
    },
    {
      "children": [
        3,
        4,
        5,
        6
      ],
      "name": "Hercule - CleanUp - LowPoly.obj.cleaner.materialmerger.gles"
    },
    {
      "mesh": 0,
      "name": ""
    },
    {
      "mesh": 1,
      "name": ""
    },
    {
      "mesh": 2,
      "name": ""
    },
    {
      "mesh": 3,
      "name": ""
    }
  ],
  "samplers": [
    {
      "magFilter": 9729,
      "minFilter": 9987,
      "wrapS": 10497,
      "wrapT": 10497
    }
  ],
  "scene": 0,
  "scenes": [
    {
      "name": "OSG_Scene",
      "nodes": [
        0
      ]
    }
  ],
  "textures": [
    {
      "sampler": 0,
      "source": 0
    }
  ]
}

