{
  "accessors": [
    {
      "bufferView": 1,
      "componentType": 5126,
      "count": 65532,
      "max": [
        70.346000671386719,
        58.024002075195312,
        215.63400268554688
      ],
      "min": [
        1.6020001173019409,
        3.6640002727508545,
        1.718000054359436
      ],
      "type": "VEC3"
    },
    {
      "bufferView": 1,
      "byteOffset": 786384,
      "componentType": 5126,
      "count": 65532,
      "max": [
        0.99999433755874634,
        0.99998581409454346,
        0.99998855590820312
      ],
      "min": [
        -0.99999862909317017,
        -0.99996131658554077,
        -0.99999761581420898
      ],
      "type": "VEC3"
    },
    {
      "bufferView": 0,
      "componentType": 5125,
      "count": 311127,
      "max": [
        65531
      ],
      "min": [
        0
      ],
      "type": "SCALAR"
    },
    {
      "bufferView": 1,
      "byteOffset": 1572768,
      "componentType": 5126,
      "count": 65532,
      "max": [
        70.248001098632812,
        64.976005554199219,
        215.58601379394531
      ],
      "min": [
        0.0040000001899898052,
        1.1960000991821289,
        0.0080000003799796104
      ],
      "type": "VEC3"
    },
    {
      "bufferView": 1,
      "byteOffset": 2359152,
      "componentType": 5126,
      "count": 65532,
      "max": [
        0.99999570846557617,
        0.99998629093170166,
        0.99999856948852539
      ],
      "min": [
        -0.99996793270111084,
        -0.99992471933364868,
        -0.9999992847442627
      ],
      "type": "VEC3"
    },
    {
      "bufferView": 0,
      "byteOffset": 1244508,
      "componentType": 5125,
      "count": 314517,
      "max": [
        65531
      ],
      "min": [
        0
      ],
      "type": "SCALAR"
    },
    {
      "bufferView": 1,
      "byteOffset": 3145536,
      "componentType": 5126,
      "count": 65532,
      "max": [
        68.38800048828125,
        64.44000244140625,
        215.17601013183594
      ],
      "min": [
        1.0880000591278076,
        -0.0020000000949949026,
        0.0080000003799796104
      ],
      "type": "VEC3"
    },
    {
      "bufferView": 1,
      "byteOffset": 3931920,
      "componentType": 5126,
      "count": 65532,
      "max": [
        0.99999445676803589,
        0.99998986721038818,
        0.99999654293060303
      ],
      "min": [
        -0.99996674060821533,
        -0.99997305870056152,
        -0.99999982118606567
      ],
      "type": "VEC3"
    },
    {
      "bufferView": 0,
      "byteOffset": 2502576,
      "componentType": 5125,
      "count": 318483,
      "max": [
        65531
      ],
      "min": [
        0
      ],
      "type": "SCALAR"
    },
    {
      "bufferView": 1,
      "byteOffset": 4718304,
      "componentType": 5126,
      "count": 65532,
      "max": [
        70.516006469726562,
        57.954002380371094,
        213.86801147460938
      ],
      "min": [
        0.53800004720687866,
        3.5900001525878906,
        0.032000001519918442
      ],
      "type": "VEC3"
    },
    {
      "bufferView": 1,
      "byteOffset": 5504688,
      "componentType": 5126,
      "count": 65532,
      "max": [
        0.99999570846557617,
        0.9999840259552002,
        0.99999904632568359
      ],
      "min": [
        -0.99997204542160034,
        -0.99999994039535522,
        -0.99998718500137329
      ],
      "type": "VEC3"
    },
    {
      "bufferView": 0,
      "byteOffset": 3776508,
      "componentType": 5125,
      "count": 318021,
      "max": [
        65531
      ],
      "min": [
        0
      ],
      "type": "SCALAR"
    },
    {
      "bufferView": 1,
      "byteOffset": 6291072,
      "componentType": 5126,
      "count": 65532,
      "max": [
        71.152000427246094,
        64.962005615234375,
        214.61201477050781
      ],
      "min": [
        1.624000072479248,
        -0.0020000000949949026,
        0.018000001087784767
      ],
      "type": "VEC3"
    },
    {
      "bufferView": 1,
      "byteOffset": 7077456,
      "componentType": 5126,
      "count": 65532,
      "max": [
        0.99999338388442993,
        0.99995356798171997,
        1
      ],
      "min": [
        -0.99984157085418701,
        -0.99999630451202393,
        -0.99999815225601196
      ],
      "type": "VEC3"
    },
    {
      "bufferView": 0,
      "byteOffset": 5048592,
      "componentType": 5125,
      "count": 306915,
      "max": [
        65531
      ],
      "min": [
        0
      ],
      "type": "SCALAR"
    },
    {
      "bufferView": 1,
      "byteOffset": 7863840,
      "componentType": 5126,
      "count": 65532,
      "max": [
        71.152000427246094,
        64.85400390625,
        215.45401000976562
      ],
      "min": [
        0.090000003576278687,
        0.014000000432133675,
        0.016000000759959221
      ],
      "type": "VEC3"
    },
    {
      "bufferView": 1,
      "byteOffset": 8650224,
      "componentType": 5126,
      "count": 65532,
      "max": [
        0.99999570846557617,
        1,
        0.99999725818634033
      ],
      "min": [
        -0.99997204542160034,
        -0.99998164176940918,
        -1
      ],
      "type": "VEC3"
    },
    {
      "bufferView": 0,
      "byteOffset": 6276252,
      "componentType": 5125,
      "count": 213486,
      "max": [
        65531
      ],
      "min": [
        0
      ],
      "type": "SCALAR"
    },
    {
      "bufferView": 1,
      "byteOffset": 9436608,
      "componentType": 5126,
      "count": 27494,
      "max": [
        71.118003845214844,
        64.938003540039062,
        215.63400268554688
      ],
      "min": [
        0.020000001415610313,
        0.016000000759959221,
        0.016000000759959221
      ],
      "type": "VEC3"
    },
    {
      "bufferView": 1,
      "byteOffset": 9766536,
      "componentType": 5126,
      "count": 27494,
      "max": [
        1,
        0.99995815753936768,
        0.99999904632568359
      ],
      "min": [
        -1,
        -0.99992626905441284,
        -1
      ],
      "type": "VEC3"
    },
    {
      "bufferView": 0,
      "byteOffset": 7130196,
      "componentType": 5125,
      "count": 39273,
      "max": [
        27493
      ],
      "min": [
        0
      ],
      "type": "SCALAR"
    }
  ],
  "asset": {
    "extras": {
      "author": "bin_z (https://sketchfab.com/bin_z)",
      "license": "CC-BY-NC-4.0 (http://creativecommons.org/licenses/by-nc/4.0/)",
      "source": "https://sketchfab.com/3d-models/venus-de-milo-louvre-scan-7552a55ec4e949f2aea716796ed9a5e1",
      "title": "venus-de-milo-louvre-scan"
    },
    "generator": "Sketchfab-6.0.0",
    "version": "2.0"
  },
  "bufferViews": [
    {
      "buffer": 0,
      "byteLength": 7287288,
      "byteOffset": 0,
      "name": "floatBufferViews",
      "target": 34963
    },
    {
      "buffer": 0,
      "byteLength": 10096464,
      "byteOffset": 7287288,
      "byteStride": 12,
      "name": "floatBufferViews",
      "target": 34962
    }
  ],
  "buffers": [
    {
      "byteLength": 17383752,
      "uri": "scene.bin"
    }
  ],
  "materials": [
    {
      "doubleSided": true,
      "name": "Scene_-_Root",
      "pbrMetallicRoughness": {
        "baseColorFactor": [
          0.80000000000000004,
          0.80000000000000004,
          0.80000000000000004,
          1
        ],
        "metallicFactor": 0,
        "roughnessFactor": 0.59999999999999998
      }
    }
  ],
  "meshes": [
    {
      "primitives": [
        {
          "attributes": {
            "NORMAL": 1,
            "POSITION": 0
          },
          "indices": 2,
          "material": 0,
          "mode": 4
        }
      ]
    },
    {
      "primitives": [
        {
          "attributes": {
            "NORMAL": 4,
            "POSITION": 3
          },
          "indices": 5,
          "material": 0,
          "mode": 4
        }
      ]
    },
    {
      "primitives": [
        {
          "attributes": {
            "NORMAL": 7,
            "POSITION": 6
          },
          "indices": 8,
          "material": 0,
          "mode": 4
        }
      ]
    },
    {
      "primitives": [
        {
          "attributes": {
            "NORMAL": 10,
            "POSITION": 9
          },
          "indices": 11,
          "material": 0,
          "mode": 4
        }
      ]
    },
    {
      "primitives": [
        {
          "attributes": {
            "NORMAL": 13,
            "POSITION": 12
          },
          "indices": 14,
          "material": 0,
          "mode": 4
        }
      ]
    },
    {
      "primitives": [
        {
          "attributes": {
            "NORMAL": 16,
            "POSITION": 15
          },
          "indices": 17,
          "material": 0,
          "mode": 4
        }
      ]
    },
    {
      "primitives": [
        {
          "attributes": {
            "NORMAL": 19,
            "POSITION": 18
          },
          "indices": 20,
          "material": 0,
          "mode": 4
        }
      ]
    }
  ],
  "nodes": [
    {
      "children": [
        1
      ],
      "name": "RootNode (gltf orientation matrix)",
      "rotation": [
        -0.70710678118654746,
        -0,
        -0,
        0.70710678118654757
      ]
    },
    {
      "children": [
        2
      ],
      "name": "RootNode (model correction matrix)"
    },
    {
      "children": [
        3,
        4,
        5,
        6,
        7,
        8,
        9
      ],
      "name": "revised-scan-the-world-venus-de-milo-louvre.stl.cleaner.materialmerger.gles"
    },
    {
      "mesh": 0,
      "name": ""
    },
    {
      "mesh": 1,
      "name": ""
    },
    {
      "mesh": 2,
      "name": ""
    },
    {
      "mesh": 3,
      "name": ""
    },
    {
      "mesh": 4,
      "name": ""
    },
    {
      "mesh": 5,
      "name": ""
    },
    {
      "mesh": 6,
      "name": ""
    }
  ],
  "scene": 0,
  "scenes": [
    {
      "name": "OSG_Scene",
      "nodes": [
        0
      ]
    }
  ]
}

