{
  "accessors": [
    {
      "bufferView": 2,
      "componentType": 5126,
      "count": 65532,
      "max": [
        8.4184741973876953,
        6.9357242584228516,
        23.547624588012695
      ],
      "min": [
        0.104766845703125,
        0,
        1.0106799602508545
      ],
      "type": "VEC3"
    },
    {
      "bufferView": 2,
      "byteOffset": 786384,
      "componentType": 5126,
      "count": 65532,
      "max": [
        0.99998593330383301,
        0.99999809265136719,
        0.99995899200439453
      ],
      "min": [
        -0.99998629093170166,
        -0.99997371435165405,
        -0.99992161989212036
      ],
      "type": "VEC3"
    },
    {
      "bufferView": 3,
      "componentType": 5126,
      "count": 65532,
      "max": [
        0.99994754791259766,
        1,
        0.9999392032623291,
        1
      ],
      "min": [
        -0.99995726346969604,
        -0.99995934963226318,
        -0.99999672174453735,
        -1
      ],
      "type": "VEC4"
    },
    {
      "bufferView": 1,
      "componentType": 5126,
      "count": 65532,
      "max": [
        0.99931001663208008,
        1.9998300075531006
      ],
      "min": [
        0.00067999999737367034,
        7.9999997979030013e-05
      ],
      "type": "VEC2"
    },
    {
      "bufferView": 0,
      "componentType": 5125,
      "count": 304197,
      "max": [
        65531
      ],
      "min": [
        0
      ],
      "type": "SCALAR"
    },
    {
      "bufferView": 2,
      "byteOffset": 1572768,
      "componentType": 5126,
      "count": 65532,
      "max": [
        10.203447341918945,
        7.049473762512207,
        23.089189529418945
      ],
      "min": [
        0,
        0.19457602500915527,
        0
      ],
      "type": "VEC3"
    },
    {
      "bufferView": 2,
      "byteOffset": 2359152,
      "componentType": 5126,
      "count": 65532,
      "max": [
        0.99999195337295532,
        0.99999040365219116,
        0.99996376037597656
      ],
      "min": [
        -0.99999243021011353,
        -0.9999924898147583,
        -0.99937522411346436
      ],
      "type": "VEC3"
    },
    {
      "bufferView": 3,
      "byteOffset": 1048512,
      "componentType": 5126,
      "count": 65532,
      "max": [
        0.99999171495437622,
        0.99997299909591675,
        0.99986815452575684,
        1
      ],
      "min": [
        -0.99999916553497314,
        -0.99999630451202393,
        -0.9999774694442749,
        -1
      ],
      "type": "VEC4"
    },
    {
      "bufferView": 1,
      "byteOffset": 524256,
      "componentType": 5126,
      "count": 65532,
      "max": [
        0.99790000915527344,
        0.99639999866485596
      ],
      "min": [
        0.0010600000387057662,
        0.00063000002410262823
      ],
      "type": "VEC2"
    },
    {
      "bufferView": 0,
      "byteOffset": 1216788,
      "componentType": 5125,
      "count": 293088,
      "max": [
        65531
      ],
      "min": [
        0
      ],
      "type": "SCALAR"
    },
    {
      "bufferView": 2,
      "byteOffset": 3145536,
      "componentType": 5126,
      "count": 24828,
      "max": [
        10.148773193359375,
        7.0464468002319336,
        23.547624588012695
      ],
      "min": [
        0.061054229736328125,
        0.012240886688232422,
        0.00072699785232543945
      ],
      "type": "VEC3"
    },
    {
      "bufferView": 2,
      "byteOffset": 3443472,
      "componentType": 5126,
      "count": 24828,
      "max": [
        0.99997484683990479,
        0.99994724988937378,
        0.99995899200439453
      ],
      "min": [
        -0.999977707862854,
        -0.99997371435165405,
        -0.99939101934432983
      ],
      "type": "VEC3"
    },
    {
      "bufferView": 3,
      "byteOffset": 2097024,
      "componentType": 5126,
      "count": 24828,
      "max": [
        0.99994754791259766,
        0.99997299909591675,
        0.99993717670440674,
        1
      ],
      "min": [
        -0.99991130828857422,
        -0.99995523691177368,
        -0.99999672174453735,
        -1
      ],
      "type": "VEC4"
    },
    {
      "bufferView": 1,
      "byteOffset": 1048512,
      "componentType": 5126,
      "count": 24828,
      "max": [
        0.9956200122833252,
        0.99542999267578125
      ],
      "min": [
        0.0017199999419972301,
        0.0070299999788403511
      ],
      "type": "VEC2"
    },
    {
      "bufferView": 0,
      "byteOffset": 2389140,
      "componentType": 5125,
      "count": 64710,
      "max": [
        24827
      ],
      "min": [
        0
      ],
      "type": "SCALAR"
    }
  ],
  "asset": {
    "extras": {
      "author": "Benjamin Bardou (https://sketchfab.com/meryon)",
      "license": "CC-BY-4.0 (http://creativecommons.org/licenses/by/4.0/)",
      "source": "https://sketchfab.com/models/700acde1408247eba79668220b5cf5a1",
      "title": "Spartacus - Louvre Museum"
    },
    "generator": "Sketchfab-3.18.6",
    "version": "2.0"
  },
  "bufferViews": [
    {
      "buffer": 0,
      "byteLength": 2647980,
      "byteOffset": 0,
      "name": "floatBufferViews",
      "target": 34963
    },
    {
      "buffer": 0,
      "byteLength": 1247136,
      "byteOffset": 2647980,
      "byteStride": 8,
      "name": "floatBufferViews",
      "target": 34962
    },
    {
      "buffer": 0,
      "byteLength": 3741408,
      "byteOffset": 3895116,
      "byteStride": 12,
      "name": "floatBufferViews",
      "target": 34962
    },
    {
      "buffer": 0,
      "byteLength": 2494272,
      "byteOffset": 7636524,
      "byteStride": 16,
      "name": "floatBufferViews",
      "target": 34962
    }
  ],
  "buffers": [
    {
      "byteLength": 10130796,
      "uri": "scene.bin"
    }
  ],
  "images": [
    {
      "uri": "textures/lambert2SG_emissive.jpg"
    }
  ],
  "materials": [
    {
      "doubleSided": true,
      "emissiveFactor": [
        1,
        1,
        1
      ],
      "emissiveTexture": {
        "index": 0,
        "texCoord": 0
      },
      "name": "lambert2SG",
      "pbrMetallicRoughness": {
        "baseColorFactor": [
          0,
          0,
          0,
          1
        ],
        "metallicFactor": 0,
        "roughnessFactor": 1
      }
    }
  ],
  "meshes": [
    {
      "primitives": [
        {
          "attributes": {
            "NORMAL": 1,
            "POSITION": 0,
            "TANGENT": 2,
            "TEXCOORD_0": 3
          },
          "indices": 4,
          "material": 0,
          "mode": 4
        }
      ]
    },
    {
      "primitives": [
        {
          "attributes": {
            "NORMAL": 6,
            "POSITION": 5,
            "TANGENT": 7,
            "TEXCOORD_0": 8
          },
          "indices": 9,
          "material": 0,
          "mode": 4
        }
      ]
    },
    {
      "primitives": [
        {
          "attributes": {
            "NORMAL": 11,
            "POSITION": 10,
            "TANGENT": 12,
            "TEXCOORD_0": 13
          },
          "indices": 14,
          "material": 0,
          "mode": 4
        }
      ]
    }
  ],
  "nodes": [
    {
      "children": [
        1
      ],
      "name": "RootNode (gltf orientation matrix)",
      "rotation": [
        -0.70710678118654746,
        -0,
        -0,
        0.70710678118654757
      ]
    },
    {
      "children": [
        2
      ],
      "name": "RootNode (model correction matrix)"
    },
    {
      "children": [
        3
      ],
      "matrix": [
        1,
        0,
        0,
        0,
        0,
        1,
        0,
        0,
        0,
        0,
        1,
        0,
        -5.1375870704650879,
        -3.5397830009460449,
        0.70042198896408081,
        1
      ],
      "name": "SPARTACUS.obj.cleaner.gles"
    },
    {
      "children": [
        4,
        5,
        6
      ],
      "name": ""
    },
    {
      "mesh": 0,
      "name": ""
    },
    {
      "mesh": 1,
      "name": ""
    },
    {
      "mesh": 2,
      "name": ""
    }
  ],
  "samplers": [
    {
      "magFilter": 9729,
      "minFilter": 9987,
      "wrapS": 10497,
      "wrapT": 10497
    }
  ],
  "scene": 0,
  "scenes": [
    {
      "name": "OSG_Scene",
      "nodes": [
        0
      ]
    }
  ],
  "textures": [
    {
      "sampler": 0,
      "source": 0
    }
  ]
}

