{
  "accessors": [
    {
      "bufferView": 2,
      "componentType": 5126,
      "count": 18129,
      "max": [
        0.1926533430814743,
        0.65790355205535889,
        0.097521007061004639
      ],
      "min": [
        -0.26119273900985718,
        0.0031998725607991219,
        -0.1990990936756134
      ],
      "type": "VEC3"
    },
    {
      "bufferView": 2,
      "byteOffset": 217548,
      "componentType": 5126,
      "count": 18129,
      "max": [
        0.99984800815582275,
        0.99990701675415039,
        0.99998760223388672
      ],
      "min": [
        -0.99993348121643066,
        -0.99519658088684082,
        -0.99958348274230957
      ],
      "type": "VEC3"
    },
    {
      "bufferView": 3,
      "componentType": 5126,
      "count": 18129,
      "max": [
        0.99995541572570801,
        0.99821895360946655,
        0.99998378753662109,
        1
      ],
      "min": [
        -0.99996930360794067,
        -0.99982202053070068,
        -0.99998480081558228,
        -1
      ],
      "type": "VEC4"
    },
    {
      "bufferView": 1,
      "componentType": 5126,
      "count": 18129,
      "max": [
        0.99716401100158691,
        0.99717229604721069
      ],
      "min": [
        0.0028291563503444195,
        0.0044463872909545898
      ],
      "type": "VEC2"
    },
    {
      "bufferView": 1,
      "byteOffset": 145032,
      "componentType": 5126,
      "count": 18129,
      "max": [
        0.99716401100158691,
        0.99717229604721069
      ],
      "min": [
        0.0028291563503444195,
        0.0044463872909545898
      ],
      "type": "VEC2"
    },
    {
      "bufferView": 1,
      "byteOffset": 290064,
      "componentType": 5126,
      "count": 18129,
      "max": [
        0.99625849723815918,
        0.99772006273269653
      ],
      "min": [
        0.0020712385885417461,
        0.0018399953842163086
      ],
      "type": "VEC2"
    },
    {
      "bufferView": 1,
      "byteOffset": 435096,
      "componentType": 5126,
      "count": 18129,
      "max": [
        0.99716401100158691,
        0.99717229604721069
      ],
      "min": [
        0.0028291563503444195,
        0.0044463872909545898
      ],
      "type": "VEC2"
    },
    {
      "bufferView": 0,
      "componentType": 5125,
      "count": 43914,
      "max": [
        18128
      ],
      "min": [
        0
      ],
      "type": "SCALAR"
    }
  ],
  "asset": {
    "extras": {
      "author": "Nazzareno Giannelli (https://sketchfab.com/cyberglobe)",
      "license": "CC-BY-4.0 (http://creativecommons.org/licenses/by/4.0/)",
      "source": "https://sketchfab.com/3d-models/nike-of-samothrace-51fdc0b0632749afbd67c943119f7bcc",
      "title": "Nike of Samothrace"
    },
    "generator": "Sketchfab-5.81.0",
    "version": "2.0"
  },
  "bufferViews": [
    {
      "buffer": 0,
      "byteLength": 175656,
      "byteOffset": 0,
      "name": "floatBufferViews",
      "target": 34963
    },
    {
      "buffer": 0,
      "byteLength": 580128,
      "byteOffset": 175656,
      "byteStride": 8,
      "name": "floatBufferViews",
      "target": 34962
    },
    {
      "buffer": 0,
      "byteLength": 435096,
      "byteOffset": 755784,
      "byteStride": 12,
      "name": "floatBufferViews",
      "target": 34962
    },
    {
      "buffer": 0,
      "byteLength": 290064,
      "byteOffset": 1190880,
      "byteStride": 16,
      "name": "floatBufferViews",
      "target": 34962
    }
  ],
  "buffers": [
    {
      "byteLength": 1480944,
      "uri": "scene.bin"
    }
  ],
  "images": [
    {
      "uri": "textures/Nike.001_baseColor.png"
    },
    {
      "uri": "textures/Nike.001_metallicRoughness.png"
    }
  ],
  "materials": [
    {
      "doubleSided": true,
      "name": "Nike.001",
      "pbrMetallicRoughness": {
        "baseColorFactor": [
          1,
          1,
          1,
          1
        ],
        "baseColorTexture": {
          "index": 0,
          "texCoord": 0
        },
        "metallicFactor": 1,
        "metallicRoughnessTexture": {
          "index": 1,
          "texCoord": 1
        },
        "roughnessFactor": 1
      }
    }
  ],
  "meshes": [
    {
      "primitives": [
        {
          "attributes": {
            "NORMAL": 1,
            "POSITION": 0,
            "TANGENT": 2,
            "TEXCOORD_0": 3,
            "TEXCOORD_1": 4,
            "TEXCOORD_2": 5,
            "TEXCOORD_3": 6
          },
          "indices": 7,
          "material": 0,
          "mode": 4
        }
      ]
    }
  ],
  "nodes": [
    {
      "children": [
        1
      ],
      "name": "RootNode (gltf orientation matrix)",
      "rotation": [
        -0.70710678118654746,
        -0,
        -0,
        0.70710678118654757
      ]
    },
    {
      "children": [
        2
      ],
      "name": "RootNode (model correction matrix)"
    },
    {
      "children": [
        3
      ],
      "name": "root"
    },
    {
      "children": [
        4
      ],
      "matrix": [
        1,
        0,
        0,
        0,
        0,
        2.2204460492503131e-16,
        1,
        0,
        0,
        -1,
        2.2204460492503131e-16,
        0,
        0,
        0,
        0,
        1
      ],
      "name": "GLTF_SceneRootNode"
    },
    {
      "children": [
        5
      ],
      "name": "Nike2_midPoly_0"
    },
    {
      "mesh": 0,
      "name": ""
    }
  ],
  "samplers": [
    {
      "magFilter": 9729,
      "minFilter": 9987,
      "wrapS": 10497,
      "wrapT": 10497
    }
  ],
  "scene": 0,
  "scenes": [
    {
      "name": "OSG_Scene",
      "nodes": [
        0
      ]
    }
  ],
  "textures": [
    {
      "sampler": 0,
      "source": 0
    },
    {
      "sampler": 0,
      "source": 1
    }
  ]
}

