{
  "accessors": [
    {
      "bufferView": 2,
      "componentType": 5126,
      "count": 65532,
      "max": [
        10.813989639282227,
        14.62176513671875,
        13.386324882507324
      ],
      "min": [
        1.829010009765625,
        0.63402462005615234,
        0.0095710009336471558
      ],
      "type": "VEC3"
    },
    {
      "bufferView": 2,
      "byteOffset": 786384,
      "componentType": 5126,
      "count": 65532,
      "max": [
        0.999991774559021,
        0.9999815821647644,
        0.99995315074920654
      ],
      "min": [
        -0.99993395805358887,
        -0.99998652935028076,
        -0.99997562170028687
      ],
      "type": "VEC3"
    },
    {
      "bufferView": 3,
      "componentType": 5126,
      "count": 65532,
      "max": [
        0.99998319149017334,
        0.99997729063034058,
        0.99996870756149292,
        1
      ],
      "min": [
        -0.99999505281448364,
        -0.99998360872268677,
        -0.99983078241348267,
        -1
      ],
      "type": "VEC4"
    },
    {
      "bufferView": 3,
      "byteOffset": 1048512,
      "componentType": 5126,
      "count": 65532,
      "max": [
        0.75294119119644165,
        0.75294119119644165,
        0.75294119119644165,
        1
      ],
      "min": [
        0.75294119119644165,
        0.75294119119644165,
        0.75294119119644165,
        1
      ],
      "type": "VEC4"
    },
    {
      "bufferView": 1,
      "componentType": 5126,
      "count": 65532,
      "max": [
        0.99670702219009399,
        0.99602997303009033
      ],
      "min": [
        0.0027600000612437725,
        0.00048099999548867345
      ],
      "type": "VEC2"
    },
    {
      "bufferView": 0,
      "componentType": 5125,
      "count": 311205,
      "max": [
        65531
      ],
      "min": [
        0
      ],
      "type": "SCALAR"
    },
    {
      "bufferView": 2,
      "byteOffset": 1572768,
      "componentType": 5126,
      "count": 65532,
      "max": [
        11.999588012695312,
        14.455801010131836,
        10.017123222351074
      ],
      "min": [
        1.186676025390625,
        3.4027886390686035,
        2.3578259944915771
      ],
      "type": "VEC3"
    },
    {
      "bufferView": 2,
      "byteOffset": 2359152,
      "componentType": 5126,
      "count": 65532,
      "max": [
        0.99998527765274048,
        0.99998760223388672,
        0.99999785423278809
      ],
      "min": [
        -0.99996662139892578,
        -0.99997758865356445,
        -0.99997466802597046
      ],
      "type": "VEC3"
    },
    {
      "bufferView": 3,
      "byteOffset": 2097024,
      "componentType": 5126,
      "count": 65532,
      "max": [
        0.99979525804519653,
        0.99999278783798218,
        0.99997240304946899,
        1
      ],
      "min": [
        -0.9999956488609314,
        -0.99998748302459717,
        -0.99994158744812012,
        -1
      ],
      "type": "VEC4"
    },
    {
      "bufferView": 3,
      "byteOffset": 3145536,
      "componentType": 5126,
      "count": 65532,
      "max": [
        0.75294119119644165,
        0.75294119119644165,
        0.75294119119644165,
        1
      ],
      "min": [
        0.75294119119644165,
        0.75294119119644165,
        0.75294119119644165,
        1
      ],
      "type": "VEC4"
    },
    {
      "bufferView": 1,
      "byteOffset": 524256,
      "componentType": 5126,
      "count": 65532,
      "max": [
        0.99787002801895142,
        0.99120998382568359
      ],
      "min": [
        0.0020099999383091927,
        0.00043300000834278762
      ],
      "type": "VEC2"
    },
    {
      "bufferView": 0,
      "byteOffset": 1244820,
      "componentType": 5125,
      "count": 303198,
      "max": [
        65531
      ],
      "min": [
        0
      ],
      "type": "SCALAR"
    },
    {
      "bufferView": 2,
      "byteOffset": 3145536,
      "componentType": 5126,
      "count": 65532,
      "max": [
        12.713251113891602,
        14.845661163330078,
        6.3641538619995117
      ],
      "min": [
        0.561370849609375,
        1.4115514755249023,
        1.1774590015411377
      ],
      "type": "VEC3"
    },
    {
      "bufferView": 2,
      "byteOffset": 3931920,
      "componentType": 5126,
      "count": 65532,
      "max": [
        0.99998301267623901,
        0.99999833106994629,
        0.99994188547134399
      ],
      "min": [
        -0.99992954730987549,
        -0.9999922513961792,
        -0.99974119663238525
      ],
      "type": "VEC3"
    },
    {
      "bufferView": 3,
      "byteOffset": 4194048,
      "componentType": 5126,
      "count": 65532,
      "max": [
        0.99995213747024536,
        0.99997633695602417,
        0.99999362230300903,
        1
      ],
      "min": [
        -0.99996703863143921,
        -0.99989348649978638,
        -0.9999275803565979,
        -1
      ],
      "type": "VEC4"
    },
    {
      "bufferView": 3,
      "byteOffset": 5242560,
      "componentType": 5126,
      "count": 65532,
      "max": [
        0.75294119119644165,
        0.75294119119644165,
        0.75294119119644165,
        1
      ],
      "min": [
        0.75294119119644165,
        0.75294119119644165,
        0.75294119119644165,
        1
      ],
      "type": "VEC4"
    },
    {
      "bufferView": 1,
      "byteOffset": 1048512,
      "componentType": 5126,
      "count": 65532,
      "max": [
        0.99785000085830688,
        0.95524001121520996
      ],
      "min": [
        0.0036500000860542059,
        0.0010209999745711684
      ],
      "type": "VEC2"
    },
    {
      "bufferView": 0,
      "byteOffset": 2457612,
      "componentType": 5125,
      "count": 299733,
      "max": [
        65531
      ],
      "min": [
        0
      ],
      "type": "SCALAR"
    },
    {
      "bufferView": 2,
      "byteOffset": 4718304,
      "componentType": 5126,
      "count": 65532,
      "max": [
        11.923534393310547,
        14.834022521972656,
        5.0596961975097656
      ],
      "min": [
        0.3979802131652832,
        0.30164241790771484,
        1.4794780015945435
      ],
      "type": "VEC3"
    },
    {
      "bufferView": 2,
      "byteOffset": 5504688,
      "componentType": 5126,
      "count": 65532,
      "max": [
        0.9999890923500061,
        0.99996840953826904,
        0.99994188547134399
      ],
      "min": [
        -0.99984419345855713,
        -0.99996674060821533,
        -0.99965375661849976
      ],
      "type": "VEC3"
    },
    {
      "bufferView": 3,
      "byteOffset": 6291072,
      "componentType": 5126,
      "count": 65532,
      "max": [
        0.9999382495880127,
        0.99998736381530762,
        0.999988853931427,
        1
      ],
      "min": [
        -0.99994701147079468,
        -0.99993753433227539,
        -0.99997526407241821,
        -1
      ],
      "type": "VEC4"
    },
    {
      "bufferView": 3,
      "byteOffset": 7339584,
      "componentType": 5126,
      "count": 65532,
      "max": [
        0.75294119119644165,
        0.75294119119644165,
        0.75294119119644165,
        1
      ],
      "min": [
        0.75294119119644165,
        0.75294119119644165,
        0.75294119119644165,
        1
      ],
      "type": "VEC4"
    },
    {
      "bufferView": 1,
      "byteOffset": 1572768,
      "componentType": 5126,
      "count": 65532,
      "max": [
        0.99778997898101807,
        0.95330697298049927
      ],
      "min": [
        0.0026320000179111958,
        0.00011999999696854502
      ],
      "type": "VEC2"
    },
    {
      "bufferView": 0,
      "byteOffset": 3656544,
      "componentType": 5125,
      "count": 296427,
      "max": [
        65531
      ],
      "min": [
        0
      ],
      "type": "SCALAR"
    },
    {
      "bufferView": 2,
      "byteOffset": 6291072,
      "componentType": 5126,
      "count": 65532,
      "max": [
        12.807086944580078,
        15.91702938079834,
        3.6711990833282471
      ],
      "min": [
        0.041474819183349609,
        0.011702537536621094,
        0.011583000421524048
      ],
      "type": "VEC3"
    },
    {
      "bufferView": 2,
      "byteOffset": 7077456,
      "componentType": 5126,
      "count": 65532,
      "max": [
        0.99999558925628662,
        0.99972009658813477,
        0.99999940395355225
      ],
      "min": [
        -0.99995583295822144,
        -0.99999600648880005,
        -0.99994415044784546
      ],
      "type": "VEC3"
    },
    {
      "bufferView": 3,
      "byteOffset": 8388096,
      "componentType": 5126,
      "count": 65532,
      "max": [
        0.99999338388442993,
        0.99998420476913452,
        0.999980628490448,
        1
      ],
      "min": [
        -0.99998778104782104,
        -0.99999338388442993,
        -0.99999833106994629,
        -1
      ],
      "type": "VEC4"
    },
    {
      "bufferView": 3,
      "byteOffset": 9436608,
      "componentType": 5126,
      "count": 65532,
      "max": [
        0.75294119119644165,
        0.75294119119644165,
        0.75294119119644165,
        1
      ],
      "min": [
        0.75294119119644165,
        0.75294119119644165,
        0.75294119119644165,
        1
      ],
      "type": "VEC4"
    },
    {
      "bufferView": 1,
      "byteOffset": 2097024,
      "componentType": 5126,
      "count": 65532,
      "max": [
        0.99278002977371216,
        0.9531790018081665
      ],
      "min": [
        0.0027429999317973852,
        0.00079999997979030013
      ],
      "type": "VEC2"
    },
    {
      "bufferView": 0,
      "byteOffset": 4842252,
      "componentType": 5125,
      "count": 296277,
      "max": [
        65531
      ],
      "min": [
        0
      ],
      "type": "SCALAR"
    },
    {
      "bufferView": 2,
      "byteOffset": 7863840,
      "componentType": 5126,
      "count": 65532,
      "max": [
        12.854554176330566,
        16.209108352661133,
        2.1366841793060303
      ],
      "min": [
        0.000244140625,
        0,
        0
      ],
      "type": "VEC3"
    },
    {
      "bufferView": 2,
      "byteOffset": 8650224,
      "componentType": 5126,
      "count": 65532,
      "max": [
        0.99999988079071045,
        0.99999600648880005,
        0.99999988079071045
      ],
      "min": [
        -0.99999964237213135,
        -0.99999600648880005,
        -0.99980181455612183
      ],
      "type": "VEC3"
    },
    {
      "bufferView": 3,
      "byteOffset": 10485120,
      "componentType": 5126,
      "count": 65532,
      "max": [
        0.99999833106994629,
        0.99999910593032837,
        0.99999880790710449,
        1
      ],
      "min": [
        -0.99985319375991821,
        -0.99999868869781494,
        -0.99999946355819702,
        -1
      ],
      "type": "VEC4"
    },
    {
      "bufferView": 3,
      "byteOffset": 11533632,
      "componentType": 5126,
      "count": 65532,
      "max": [
        0.75294119119644165,
        0.75294119119644165,
        0.75294119119644165,
        1
      ],
      "min": [
        0.75294119119644165,
        0.75294119119644165,
        0.75294119119644165,
        1
      ],
      "type": "VEC4"
    },
    {
      "bufferView": 1,
      "byteOffset": 2621280,
      "componentType": 5126,
      "count": 65532,
      "max": [
        0.99874001741409302,
        0.96953797340393066
      ],
      "min": [
        0.0026899999938905239,
        0.0011650000233203173
      ],
      "type": "VEC2"
    },
    {
      "bufferView": 0,
      "byteOffset": 6027360,
      "componentType": 5125,
      "count": 305121,
      "max": [
        65531
      ],
      "min": [
        0
      ],
      "type": "SCALAR"
    },
    {
      "bufferView": 2,
      "byteOffset": 9436608,
      "componentType": 5126,
      "count": 65532,
      "max": [
        12.852836608886719,
        16.188316345214844,
        13.350497245788574
      ],
      "min": [
        0,
        0.011702537536621094,
        9.6999108791351318e-05
      ],
      "type": "VEC3"
    },
    {
      "bufferView": 2,
      "byteOffset": 10222992,
      "componentType": 5126,
      "count": 65532,
      "max": [
        0.99999529123306274,
        0.99999946355819702,
        0.99999028444290161
      ],
      "min": [
        -0.9999995231628418,
        -0.99999064207077026,
        -0.99905854463577271
      ],
      "type": "VEC3"
    },
    {
      "bufferView": 3,
      "byteOffset": 12582144,
      "componentType": 5126,
      "count": 65532,
      "max": [
        0.99995476007461548,
        0.99997729063034058,
        0.99999868869781494,
        1
      ],
      "min": [
        -0.99996191263198853,
        -0.99999868869781494,
        -0.99997967481613159,
        -1
      ],
      "type": "VEC4"
    },
    {
      "bufferView": 3,
      "byteOffset": 13630656,
      "componentType": 5126,
      "count": 65532,
      "max": [
        0.75294119119644165,
        0.75294119119644165,
        0.75294119119644165,
        1
      ],
      "min": [
        0.75294119119644165,
        0.75294119119644165,
        0.75294119119644165,
        1
      ],
      "type": "VEC4"
    },
    {
      "bufferView": 1,
      "byteOffset": 3145536,
      "componentType": 5126,
      "count": 65532,
      "max": [
        0.99693000316619873,
        0.99018698930740356
      ],
      "min": [
        0.0037279999814927578,
        0.00020399999630171806
      ],
      "type": "VEC2"
    },
    {
      "bufferView": 0,
      "byteOffset": 7247844,
      "componentType": 5125,
      "count": 263844,
      "max": [
        65531
      ],
      "min": [
        0
      ],
      "type": "SCALAR"
    },
    {
      "bufferView": 2,
      "byteOffset": 11009376,
      "componentType": 5126,
      "count": 65533,
      "max": [
        12.756736755371094,
        16.207050323486328,
        13.371401786804199
      ],
      "min": [
        0.00089311599731445312,
        0.013501167297363281,
        0.00026100128889083862
      ],
      "type": "VEC3"
    },
    {
      "bufferView": 2,
      "byteOffset": 11795772,
      "componentType": 5126,
      "count": 65533,
      "max": [
        0.99999529123306274,
        0.99998897314071655,
        0.99999833106994629
      ],
      "min": [
        -0.99999964237213135,
        -0.99997258186340332,
        -0.99996483325958252
      ],
      "type": "VEC3"
    },
    {
      "bufferView": 3,
      "byteOffset": 14679168,
      "componentType": 5126,
      "count": 65533,
      "max": [
        0.99999576807022095,
        0.99999910593032837,
        0.99999868869781494,
        1
      ],
      "min": [
        -0.9999956488609314,
        -0.99998587369918823,
        -0.99999833106994629,
        -1
      ],
      "type": "VEC4"
    },
    {
      "bufferView": 3,
      "byteOffset": 15727696,
      "componentType": 5126,
      "count": 65533,
      "max": [
        0.75294119119644165,
        0.75294119119644165,
        0.75294119119644165,
        1
      ],
      "min": [
        0.75294119119644165,
        0.75294119119644165,
        0.75294119119644165,
        1
      ],
      "type": "VEC4"
    },
    {
      "bufferView": 1,
      "byteOffset": 3669792,
      "componentType": 5126,
      "count": 65533,
      "max": [
        0.99825000762939453,
        0.99491500854492188
      ],
      "min": [
        0.0025400000158697367,
        0.00056999997468665242
      ],
      "type": "VEC2"
    },
    {
      "bufferView": 0,
      "byteOffset": 8303220,
      "componentType": 5125,
      "count": 133920,
      "max": [
        65532
      ],
      "min": [
        0
      ],
      "type": "SCALAR"
    },
    {
      "bufferView": 2,
      "byteOffset": 12582168,
      "componentType": 5126,
      "count": 642,
      "max": [
        12.47425651550293,
        15.973752975463867,
        13.341009140014648
      ],
      "min": [
        0.04150390625,
        0.11487674713134766,
        0.011802002787590027
      ],
      "type": "VEC3"
    },
    {
      "bufferView": 2,
      "byteOffset": 12589872,
      "componentType": 5126,
      "count": 642,
      "max": [
        0.99857878684997559,
        0.99975252151489258,
        0.99978154897689819
      ],
      "min": [
        -0.99926900863647461,
        -0.9955902099609375,
        -0.99132061004638672
      ],
      "type": "VEC3"
    },
    {
      "bufferView": 3,
      "byteOffset": 16776224,
      "componentType": 5126,
      "count": 642,
      "max": [
        0.99909442663192749,
        0.99807387590408325,
        0.99707835912704468,
        1
      ],
      "min": [
        -0.99952399730682373,
        -0.99524831771850586,
        -0.99535101652145386,
        -1
      ],
      "type": "VEC4"
    },
    {
      "bufferView": 3,
      "byteOffset": 16786496,
      "componentType": 5126,
      "count": 642,
      "max": [
        0.75294119119644165,
        0.75294119119644165,
        0.75294119119644165,
        1
      ],
      "min": [
        0.75294119119644165,
        0.75294119119644165,
        0.75294119119644165,
        1
      ],
      "type": "VEC4"
    },
    {
      "bufferView": 1,
      "byteOffset": 4194056,
      "componentType": 5126,
      "count": 642,
      "max": [
        0.99076801538467407,
        0.9793969988822937
      ],
      "min": [
        0.029616000130772591,
        0.0069599999114871025
      ],
      "type": "VEC2"
    },
    {
      "bufferView": 0,
      "byteOffset": 8838900,
      "componentType": 5125,
      "count": 702,
      "max": [
        641
      ],
      "min": [
        0
      ],
      "type": "SCALAR"
    }
  ],
  "asset": {
    "extras": {
      "author": "Benjamin Bardou (https://sketchfab.com/meryon)",
      "license": "CC-BY-4.0 (http://creativecommons.org/licenses/by/4.0/)",
      "source": "https://sketchfab.com/models/b47edbcfd6d5439db2e0854d66cb9960",
      "title": "La Loire et le Loiret - Louvre Museum"
    },
    "generator": "Sketchfab-3.20.7",
    "version": "2.0"
  },
  "bufferViews": [
    {
      "buffer": 0,
      "byteLength": 8841708,
      "byteOffset": 0,
      "name": "floatBufferViews",
      "target": 34963
    },
    {
      "buffer": 0,
      "byteLength": 4199192,
      "byteOffset": 8841708,
      "byteStride": 8,
      "name": "floatBufferViews",
      "target": 34962
    },
    {
      "buffer": 0,
      "byteLength": 12597576,
      "byteOffset": 13040900,
      "byteStride": 12,
      "name": "floatBufferViews",
      "target": 34962
    },
    {
      "buffer": 0,
      "byteLength": 16796768,
      "byteOffset": 25638476,
      "byteStride": 16,
      "name": "floatBufferViews",
      "target": 34962
    }
  ],
  "buffers": [
    {
      "byteLength": 42435244,
      "uri": "scene.bin"
    }
  ],
  "images": [
    {
      "uri": "textures/material_0_emissive.jpg"
    }
  ],
  "materials": [
    {
      "doubleSided": true,
      "emissiveFactor": [
        1,
        1,
        1
      ],
      "emissiveTexture": {
        "index": 0,
        "texCoord": 0
      },
      "name": "material_0",
      "pbrMetallicRoughness": {
        "baseColorFactor": [
          0,
          0,
          0,
          1
        ],
        "metallicFactor": 0,
        "roughnessFactor": 1
      }
    }
  ],
  "meshes": [
    {
      "primitives": [
        {
          "attributes": {
            "COLOR_0": 3,
            "NORMAL": 1,
            "POSITION": 0,
            "TANGENT": 2,
            "TEXCOORD_0": 4
          },
          "indices": 5,
          "material": 0,
          "mode": 4
        }
      ]
    },
    {
      "primitives": [
        {
          "attributes": {
            "COLOR_0": 9,
            "NORMAL": 7,
            "POSITION": 6,
            "TANGENT": 8,
            "TEXCOORD_0": 10
          },
          "indices": 11,
          "material": 0,
          "mode": 4
        }
      ]
    },
    {
      "primitives": [
        {
          "attributes": {
            "COLOR_0": 15,
            "NORMAL": 13,
            "POSITION": 12,
            "TANGENT": 14,
            "TEXCOORD_0": 16
          },
          "indices": 17,
          "material": 0,
          "mode": 4
        }
      ]
    },
    {
      "primitives": [
        {
          "attributes": {
            "COLOR_0": 21,
            "NORMAL": 19,
            "POSITION": 18,
            "TANGENT": 20,
            "TEXCOORD_0": 22
          },
          "indices": 23,
          "material": 0,
          "mode": 4
        }
      ]
    },
    {
      "primitives": [
        {
          "attributes": {
            "COLOR_0": 27,
            "NORMAL": 25,
            "POSITION": 24,
            "TANGENT": 26,
            "TEXCOORD_0": 28
          },
          "indices": 29,
          "material": 0,
          "mode": 4
        }
      ]
    },
    {
      "primitives": [
        {
          "attributes": {
            "COLOR_0": 33,
            "NORMAL": 31,
            "POSITION": 30,
            "TANGENT": 32,
            "TEXCOORD_0": 34
          },
          "indices": 35,
          "material": 0,
          "mode": 4
        }
      ]
    },
    {
      "primitives": [
        {
          "attributes": {
            "COLOR_0": 39,
            "NORMAL": 37,
            "POSITION": 36,
            "TANGENT": 38,
            "TEXCOORD_0": 40
          },
          "indices": 41,
          "material": 0,
          "mode": 4
        }
      ]
    },
    {
      "primitives": [
        {
          "attributes": {
            "COLOR_0": 45,
            "NORMAL": 43,
            "POSITION": 42,
            "TANGENT": 44,
            "TEXCOORD_0": 46
          },
          "indices": 47,
          "material": 0,
          "mode": 4
        }
      ]
    },
    {
      "primitives": [
        {
          "attributes": {
            "COLOR_0": 51,
            "NORMAL": 49,
            "POSITION": 48,
            "TANGENT": 50,
            "TEXCOORD_0": 52
          },
          "indices": 53,
          "material": 0,
          "mode": 4
        }
      ]
    }
  ],
  "nodes": [
    {
      "children": [
        1
      ],
      "name": "RootNode (gltf orientation matrix)",
      "rotation": [
        -0.70710678118654746,
        -0,
        -0,
        0.70710678118654757
      ]
    },
    {
      "children": [
        2
      ],
      "name": "RootNode (model correction matrix)"
    },
    {
      "children": [
        3
      ],
      "matrix": [
        1,
        0,
        0,
        0,
        0,
        1,
        0,
        0,
        0,
        0,
        1,
        0,
        -5.9862899780273438,
        -8.5163946151733398,
        -0.10895100235939026,
        1
      ],
      "name": "LOIRE.obj.cleaner.gles"
    },
    {
      "children": [
        4,
        5,
        6,
        7,
        8,
        9,
        10,
        11,
        12
      ],
      "name": ""
    },
    {
      "mesh": 0,
      "name": ""
    },
    {
      "mesh": 1,
      "name": ""
    },
    {
      "mesh": 2,
      "name": ""
    },
    {
      "mesh": 3,
      "name": ""
    },
    {
      "mesh": 4,
      "name": ""
    },
    {
      "mesh": 5,
      "name": ""
    },
    {
      "mesh": 6,
      "name": ""
    },
    {
      "mesh": 7,
      "name": ""
    },
    {
      "mesh": 8,
      "name": ""
    }
  ],
  "samplers": [
    {
      "magFilter": 9729,
      "minFilter": 9987,
      "wrapS": 10497,
      "wrapT": 10497
    }
  ],
  "scene": 0,
  "scenes": [
    {
      "name": "OSG_Scene",
      "nodes": [
        0
      ]
    }
  ],
  "textures": [
    {
      "sampler": 0,
      "source": 0
    }
  ]
}

