{"accessors" : [{"bufferView" : 0, "byteOffset" : 0, "componentType" : 5123, "count" : 8928, "type" : "SCALAR", "max" : [2091], "min" : [0]}, {"bufferView" : 1, "byteOffset" : 0, "componentType" : 5126, "count" : 2092, "type" : "VEC3", "max" : [86.086799621582, 24.4659996032715, 69.7733993530273], "min" : [-28.128101348877, -0.00100057234521955, 12.4586000442505]}, {"bufferView" : 1, "byteOffset" : 12, "componentType" : 5126, "count" : 2092, "type" : "VEC2", "max" : [4.47349977493286, -0.0649000033736229], "min" : [0.0178999993950129, -0.962800025939941]}, {"bufferView" : 0, "byteOffset" : 17856, "componentType" : 5123, "count" : 46560, "type" : "SCALAR", "max" : [7940], "min" : [0]}, {"bufferView" : 2, "byteOffset" : 0, "componentType" : 5126, "count" : 7941, "type" : "VEC3", "max" : [82.8453979492188, 28.2148990631104, 66.9409027099609], "min" : [-25.103702545166, 23.0482997894287, 15.4429998397827]}, {"bufferView" : 2, "byteOffset" : 12, "componentType" : 5126, "count" : 7941, "type" : "VEC2", "max" : [0.671000003814697, -0.0388999991118908], "min" : [0.048200000077486, -1.9559999704361]}], "asset" : {"generator" : "Aspose.3D 20.2.1", "version" : "2.0"}, "buffers" : [{"uri" : "buffer.bin", "byteLength" : 311648}], "bufferViews" : [{"buffer" : 0, "byteOffset" : 0, "byteLength" : 110976, "target" : 34963}, {"buffer" : 0, "byteOffset" : 110980, "byteLength" : 41840, "byteStride" : 20, "target" : 34962}, {"buffer" : 0, "byteOffset" : 152824, "byteLength" : 158820, "byteStride" : 20, "target" : 34962}], "images" : [{"uri" : "wood 012.jpg"}, {"uri" : "LS_02_rd.jpg"}, {"uri" : "LS_02_rd.jpg"}], "materials" : [{"pbrMetallicRoughness" : {"baseColorFactor" : [0.992156862745098, 0.980392156862745, 0.890196078431373, 1], "baseColorTexture" : {"index" : 0, "texCoord" : 0}, "metallicFactor" : 0, "roughnessFactor" : 0}, "emissiveFactor" : [0, 0, 0], "alphaMode" : "OPAQUE", "doubleSided" : false}, {"pbrMetallicRoughness" : {"baseColorFactor" : [0.815686274509804, 0.905882352941176, 0.764705882352941, 1], "baseColorTexture" : {"index" : 2, "texCoord" : 0}, "metallicFactor" : 0, "roughnessFactor" : 0}, "normalTexture" : {"index" : 1, "texCoord" : 0, "scale" : 1}, "emissiveFactor" : [0, 0, 0], "alphaMode" : "OPAQUE", "doubleSided" : false}], "meshes" : [{"primitives" : [{"attributes" : {"POSITION" : 1, "TEXCOORD_0" : 2}, "indices" : 0, "material" : 0, "mode" : 4}]}, {"primitives" : [{"attributes" : {"POSITION" : 4, "TEXCOORD_0" : 5}, "indices" : 3, "material" : 1, "mode" : 4}]}], "nodes" : [{"matrix" : [-1, 0, 0, 0, 0, 1, -4.37113882867379E-08, 0, 0, -4.37113882867379E-08, -1, 0, 28.9793510437012, -14.1069478988647, 41.1160011291504, 1], "mesh" : 0, "name" : "Bench"}, {"matrix" : [-1, 0, 0, 0, 0, 1, -4.37113882867379E-08, 0, 0, -4.37113882867379E-08, -1, 0, 28.9793510437012, -14.1069478988647, 41.1160011291504, 1], "mesh" : 1, "name" : "Bench_seat"}], "samplers" : [{"magFilter" : 9729, "minFilter" : 9729, "wrapS" : 10497, "wrapT" : 10497}, {"magFilter" : 9729, "minFilter" : 9729, "wrapS" : 10497, "wrapT" : 10497}, {"magFilter" : 9729, "minFilter" : 9729, "wrapS" : 10497, "wrapT" : 10497}], "scene" : 0, "scenes" : [{"nodes" : [0, 1]}], "textures" : [{"sampler" : 0, "source" : 0}, {"sampler" : 1, "source" : 1}, {"sampler" : 2, "source" : 2}]}